<?xml version="1.0" standalone="no"?>
<!DOCTYPE svg PUBLIC "-//W3C//DTD SVG 20010904//EN"
 "http://www.w3.org/TR/2001/REC-SVG-20010904/DTD/svg10.dtd">
<svg version="1.0" xmlns="http://www.w3.org/2000/svg"
 width="2697.000000pt" height="3113.000000pt" viewBox="0 0 2697.000000 3113.000000"
 preserveAspectRatio="xMidYMid meet">

<g transform="translate(0.000000,3113.000000) scale(0.100000,-0.100000)"
fill="#000000" stroke="none">
<path d="M7291 26706 c-3401 -1964 -6183 -3576 -6182 -3581 2 -11 4149 -2405
4166 -2405 7 0 1852 1063 4101 2361 2249 1299 4096 2364 4105 2366 10 3 1741
-991 4160 -2388 2279 -1316 4151 -2393 4159 -2393 13 0 4202 2354 4222 2373 7
7 -12507 7235 -12531 7238 -9 1 -2799 -1606 -6200 -3571z"/>
<path d="M9743 22462 c-2053 -1187 -3734 -2159 -3737 -2162 -5 -5 7456 -4312
7480 -4318 9 -2 7554 4240 7582 4263 5 4 -7562 4370 -7577 4372 -9 1 -1695
-969 -3748 -2155z"/>
<path d="M740 15614 c0 -4256 4 -6874 9 -6872 5 2 946 536 2090 1188 l2080
1185 1 4486 0 4485 -2084 1202 c-1147 661 -2087 1202 -2090 1202 -3 0 -6
-3094 -6 -6876z"/>
<path d="M24147 21153 l-2087 -1176 2 -4526 3 -4525 2085 -1242 2085 -1241 3
3474 c1 1911 1 5036 0 6944 l-3 3469 -2088 -1177z"/>
<path d="M5642 15348 l3 -4322 3735 -2158 c2054 -1186 3738 -2157 3743 -2157
4 -1 6 1944 5 4321 l-3 4322 -3715 2143 c-2043 1178 -3727 2149 -3743 2158
l-27 16 2 -4323z"/>
<path d="M17595 17460 l-3740 -2108 -3 -4321 c-1 -2377 0 -4321 3 -4321 8 0
7459 4301 7473 4314 9 9 12 873 10 4278 l-3 4266 -3740 -2108z"/>
<path d="M3102 9252 c-1156 -658 -2101 -1199 -2101 -1202 0 -9 12473 -7205
12489 -7205 14 0 12243 7055 12238 7060 -27 25 -4099 2439 -4113 2439 -11 0
-1841 -1051 -4067 -2337 -2226 -1285 -4052 -2337 -4058 -2337 -8 0 -8110 4672
-8256 4761 l-30 18 -2102 -1197z"/>
</g>
</svg>
